<?xml version="1.0" encoding="iso-8859-1"?>
<!-- Uploaded to: SVG Repo, www.svgrepo.com, Generator: SVG Repo Mixer Tools -->
<svg height="800px" width="800px" version="1.1" id="Layer_1" xmlns="http://www.w3.org/2000/svg" xmlns:xlink="http://www.w3.org/1999/xlink" 
	 viewBox="0 0 512 512" xml:space="preserve">
<g transform="translate(0 1)">
	<path style="fill:#FFE100;" d="M412.983,323.267v-217.6c0-16.213-13.653-29.867-29.867-29.867s-29.867,13.653-29.867,29.867V63
		c0-16.213-13.653-29.867-29.867-29.867c-16.213,0-29.867,13.653-29.867,29.867v208.213c0-14.507,0-233.813,0-233.813
		c0-16.213-13.653-29.867-29.867-29.867c-16.213,0-29.867,13.653-29.867,29.867v149.333l0,0v-4.267
		c0-16.213-13.653-29.867-29.867-29.867s-29.867,13.653-29.867,29.867v93.867l0,0v4.267c0-23.893-20.48-71.68-42.667-93.867l0,0
		c-18.773-18.773-71.68-5.973-42.667,34.133c20.48,28.16,34.133,87.893,34.133,119.467c0,75.947,59.733,102.4,59.733,102.4v34.133
		c0,14.507,11.093,25.6,25.6,25.6h153.6c14.507,0,25.6-11.093,25.6-25.6v-34.133C414.69,406.04,412.983,407.747,412.983,323.267"/>
	<path style="fill:#FDCC00;" d="M203.917,306.2L203.917,306.2c-16.213,0-29.867-13.653-29.867-29.867v-93.867
		c0-16.213,13.653-29.867,29.867-29.867s29.867,13.653,29.867,29.867v93.867C233.783,292.547,220.13,306.2,203.917,306.2"/>
	<path style="fill:#FFA800;" d="M412.983,323.267V101.4c0,0,5.973-25.6-17.067-25.6c-6.827,0-13.653,1.707-18.773,5.12
		c10.24,6.827,10.24,20.48,10.24,20.48v221.867c0,84.48,1.707,82.773-25.6,120.32v33.28c0,14.507-20.48,25.6-34.133,25.6h34.133
		c14.507,0,25.6-11.093,25.6-25.6l0.853-33.28C415.543,406.04,412.983,407.747,412.983,323.267"/>
	<path style="fill:#FFE100;" d="M439.437,323.267V101.4c0,0,5.973-25.6-17.067-25.6c-6.827,0-13.653,1.707-18.773,5.12
		c10.24,7.68,10.24,20.48,10.24,20.48v221.867c0,84.48,1.707,82.773-25.6,120.32v33.28c0,14.507-20.48,25.6-34.133,25.6h34.133
		c14.507,0,25.6-11.093,25.6-25.6l0.853-33.28C441.997,406.04,439.437,407.747,439.437,323.267"/>
	<path style="fill:#FFFFFF;" d="M207.33,477.72v-34.987c0,0-59.733-25.6-59.733-101.547c0-31.573-13.653-91.307-34.133-119.467
		c-25.6-34.987,5.12-36.693,26.453-23.893c-2.56-4.267-5.973-7.68-9.387-10.24l0,0c-18.773-18.773-71.68-5.973-42.667,34.133
		c20.48,28.16,34.133,87.893,34.133,119.467c0,75.947,59.733,101.547,59.733,101.547v34.987c0,14.507,11.093,24.747,25.6,24.747
		h25.6C219.277,502.467,207.33,491.373,207.33,477.72"/>
	<path id="SVGCleanerId_0" d="M208.183,451.267h-25.6c-5.12,0-8.533-3.413-8.533-8.533c0-5.12,3.413-8.533,8.533-8.533h25.6
		c5.12,0,8.533,3.413,8.533,8.533C216.717,447.853,212.45,451.267,208.183,451.267z"/>
	<path id="SVGCleanerId_1" d="M387.383,451.267h-17.067c-5.12,0-8.533-3.413-8.533-8.533c0-5.12,3.413-8.533,8.533-8.533h17.067
		c5.12,0,8.533,3.413,8.533,8.533C395.917,447.853,391.65,451.267,387.383,451.267z"/>
	<g>
		<path id="SVGCleanerId_0_1_" d="M208.183,451.267h-25.6c-5.12,0-8.533-3.413-8.533-8.533c0-5.12,3.413-8.533,8.533-8.533h25.6
			c5.12,0,8.533,3.413,8.533,8.533C216.717,447.853,212.45,451.267,208.183,451.267z"/>
	</g>
	<g>
		<path id="SVGCleanerId_1_1_" d="M387.383,451.267h-17.067c-5.12,0-8.533-3.413-8.533-8.533c0-5.12,3.413-8.533,8.533-8.533h17.067
			c5.12,0,8.533,3.413,8.533,8.533C395.917,447.853,391.65,451.267,387.383,451.267z"/>
	</g>
	<path d="M203.917,314.733c-21.333,0-38.4-17.067-38.4-38.4v-93.867c0-21.333,17.067-38.4,38.4-38.4s38.4,17.067,38.4,38.4v93.867
		C242.317,297.667,225.25,314.733,203.917,314.733z M203.917,161.133c-11.947,0-21.333,9.387-21.333,21.333v93.867
		c0,11.947,9.387,21.333,21.333,21.333c11.947,0,21.333-9.387,21.333-21.333v-93.867C225.25,170.52,215.863,161.133,203.917,161.133
		z"/>
	<path d="M353.25,280.6c-5.12,0-8.533-3.413-8.533-8.533V109.933c0-5.12,3.413-8.533,8.533-8.533c5.12,0,8.533,3.413,8.533,8.533
		v162.133C361.783,277.187,357.517,280.6,353.25,280.6z"/>
	<path d="M344.717,297.667c-5.12,0-8.533-3.413-8.533-8.533c0-4.267,2.56-7.68,6.827-8.533c0.853-0.853,1.707-4.267,1.707-8.533
		c0-5.12,3.413-8.533,8.533-8.533c5.12,0,8.533,3.413,8.533,8.533C361.783,286.573,354.957,297.667,344.717,297.667z"/>
	<path d="M361.783,297.667c-10.24,0-17.067-11.093-17.067-25.6c0-5.12,3.413-8.533,8.533-8.533c5.12,0,8.533,3.413,8.533,8.533
		c0,4.267,0.853,7.68,1.707,8.533c3.413,0.853,6.827,4.267,6.827,8.533C370.317,294.253,366.05,297.667,361.783,297.667z
		 M364.343,281.453L364.343,281.453L364.343,281.453z"/>
	<path d="M284.983,297.667c-5.12,0-8.533-3.413-8.533-8.533c0-4.267,2.56-7.68,6.827-8.533c0.853-0.853,1.707-4.267,1.707-8.533
		c0-5.12,3.413-8.533,8.533-8.533c5.12,0,8.533,3.413,8.533,8.533C302.05,286.573,295.223,297.667,284.983,297.667z"/>
	<path d="M302.05,297.667c-10.24,0-17.067-11.093-17.067-25.6c0-5.12,3.413-8.533,8.533-8.533c5.12,0,8.533,3.413,8.533,8.533
		c0,4.267,0.853,7.68,1.707,8.533c3.413,0.853,6.827,4.267,6.827,8.533C310.583,294.253,306.317,297.667,302.05,297.667z
		 M304.61,281.453L304.61,281.453L304.61,281.453z"/>
	<path d="M361.783,511h-42.667c-5.12,0-8.533-3.413-8.533-8.533c0-5.12,3.413-8.533,8.533-8.533h42.667
		c9.387,0,17.067-7.68,17.067-17.067v-34.133c0-1.707,0.853-3.413,1.707-5.12c23.893-32.427,23.893-32.427,23.893-97.28V105.667
		c0-11.947-9.387-21.333-21.333-21.333c-11.947,0-21.333,9.387-21.333,21.333c0,5.12-3.413,8.533-8.533,8.533
		c-5.12,0-8.533-3.413-8.533-8.533V63c0-11.947-9.387-21.333-21.333-21.333c-11.947,0-21.333,9.387-21.333,21.333v208.213l0,0l0,0
		c0,5.12-3.413,8.533-8.533,8.533l0,0c-5.12,0-8.533-3.413-8.533-8.533V37.4c0-11.947-9.387-21.333-21.333-21.333
		c-11.947,0-21.333,9.387-21.333,21.333v149.333c0,5.12-3.413,8.533-8.533,8.533c-5.12,0-8.533-3.413-8.533-8.533v-4.267
		c0-11.947-9.387-21.333-21.333-21.333c-11.947,0-21.333,9.387-21.333,21.333V280.6c0,5.12-3.413,8.533-8.533,8.533
		c-5.12,0-8.533-3.413-8.533-8.533c0-21.333-18.773-66.56-40.107-87.893c-7.68-7.68-24.747-7.68-33.28-0.853
		c-7.68,5.973-2.56,16.213,3.413,23.893c22.187,30.72,35.84,93.013,35.84,124.587c0,69.973,53.76,94.72,54.613,94.72
		c3.413,1.707,5.12,4.267,5.12,7.68v34.133c0,9.387,7.68,17.067,17.067,17.067h42.667c5.12,0,8.533,3.413,8.533,8.533
		c0,5.12-3.413,8.533-8.533,8.533h-42.667c-18.773,0-34.133-15.36-34.133-34.133v-29.013c-15.36-8.533-59.733-39.253-59.733-107.52
		c0-32.427-14.507-88.747-32.427-114.347c-19.627-27.307-5.12-42.667-0.853-46.933c15.36-12.8,42.667-11.947,56.32,1.707
		c10.24,10.24,20.48,25.6,28.16,41.813v-40.107c0-21.333,17.067-38.4,38.4-38.4c7.68,0,15.36,2.56,21.333,6.827V37.4
		c0-21.333,17.067-38.4,38.4-38.4c18.773,0,34.987,14.507,37.547,32.427c6.827-4.267,13.653-6.827,22.187-6.827
		c21.333,0,38.4,17.067,38.4,38.4v11.093c5.973-4.267,13.653-6.827,21.333-6.827c21.333,0,38.4,17.067,38.4,38.4v234.667
		c0,66.56,0,70.827-25.6,105.813v30.72C395.917,495.64,380.557,511,361.783,511z"/>
	<path d="M293.517,502.467c0-5.12-3.413-8.533-8.533-8.533c-5.12,0-8.533,3.413-8.533,8.533c0,5.12,3.413,8.533,8.533,8.533
		C290.103,511,293.517,507.587,293.517,502.467"/>
</g>
</svg>